<svg width="478" height="95" viewBox="0 0 478 95" fill="none" xmlns="http://www.w3.org/2000/svg">
<path d="M33.352 94.28C27.208 94.28 21.6614 92.9147 16.712 90.184C11.848 87.368 7.96536 83.528 5.06403 78.664C2.24803 73.8 0.840027 68.3387 0.840027 62.28C0.840027 56.2213 2.24803 50.8027 5.06403 46.024C7.88003 41.16 11.6774 37.32 16.456 34.504C21.32 31.688 26.696 30.28 32.584 30.28C38.3014 30.28 43.336 31.6027 47.688 34.248C52.1254 36.8933 55.5814 40.52 58.056 45.128C60.616 49.736 61.896 54.984 61.896 60.872C61.896 61.896 61.8107 62.9627 61.64 64.072C61.5547 65.096 61.384 66.248 61.128 67.528H10.696V56.008H53.832L48.584 60.616C48.4134 56.8613 47.688 53.704 46.408 51.144C45.128 48.584 43.2934 46.6213 40.904 45.256C38.6 43.8907 35.7414 43.208 32.328 43.208C28.744 43.208 25.6294 43.976 22.984 45.512C20.3387 47.048 18.2907 49.224 16.84 52.04C15.3894 54.7707 14.664 58.056 14.664 61.896C14.664 65.736 15.432 69.1067 16.968 72.008C18.504 74.9093 20.68 77.1707 23.496 78.792C26.312 80.328 29.5547 81.096 33.224 81.096C36.3814 81.096 39.2827 80.5413 41.928 79.432C44.6587 78.3227 46.9627 76.7013 48.84 74.568L57.8 83.656C54.8134 87.1547 51.1867 89.8 46.92 91.592C42.6534 93.384 38.1307 94.28 33.352 94.28Z" fill="#1B202B"/>
<path d="M102.239 94.28C97.5457 94.28 93.3644 93.2987 89.695 91.336C86.0257 89.288 83.1244 86.5147 80.991 83.016C78.943 79.5173 77.919 75.5493 77.919 71.112V53.448C77.919 49.0107 78.9857 45.0427 81.119 41.544C83.2524 38.0453 86.1537 35.3147 89.823 33.352C93.4924 31.304 97.631 30.28 102.239 30.28C107.786 30.28 112.778 31.7307 117.215 34.632C121.738 37.448 125.279 41.288 127.839 46.152C130.484 50.9307 131.807 56.3493 131.807 62.408C131.807 68.3813 130.484 73.8 127.839 78.664C125.279 83.4427 121.738 87.24 117.215 90.056C112.778 92.872 107.786 94.28 102.239 94.28ZM99.935 80.968C103.348 80.968 106.335 80.2 108.895 78.664C111.54 77.0427 113.588 74.824 115.039 72.008C116.575 69.192 117.343 65.9493 117.343 62.28C117.343 58.6107 116.575 55.368 115.039 52.552C113.588 49.736 111.54 47.56 108.895 46.024C106.335 44.4027 103.348 43.592 99.935 43.592C96.5217 43.592 93.4924 44.4027 90.847 46.024C88.2017 47.56 86.1537 49.736 84.703 52.552C83.2524 55.368 82.527 58.6107 82.527 62.28C82.527 65.9493 83.2524 69.192 84.703 72.008C86.1537 74.824 88.2017 77.0427 90.847 78.664C93.4924 80.2 96.5217 80.968 99.935 80.968ZM69.343 93V0.839996H83.423V46.664L80.991 61.512L83.423 76.488V93H69.343Z" fill="#1B202B"/>
<path d="M165.481 94.28C159.934 94.28 154.9 92.872 150.377 90.056C145.94 87.24 142.398 83.4427 139.753 78.664C137.193 73.8 135.913 68.3813 135.913 62.408C135.913 56.3493 137.193 50.9307 139.753 46.152C142.398 41.288 145.94 37.448 150.377 34.632C154.9 31.7307 159.934 30.28 165.481 30.28C170.174 30.28 174.313 31.304 177.897 33.352C181.566 35.3147 184.468 38.0453 186.601 41.544C188.734 45.0427 189.801 49.0107 189.801 53.448V71.112C189.801 75.5493 188.734 79.5173 186.601 83.016C184.553 86.5147 181.694 89.288 178.025 91.336C174.356 93.2987 170.174 94.28 165.481 94.28ZM167.785 80.968C172.99 80.968 177.172 79.2187 180.329 75.72C183.572 72.2213 185.193 67.7413 185.193 62.28C185.193 58.6107 184.468 55.368 183.017 52.552C181.566 49.736 179.518 47.56 176.873 46.024C174.313 44.4027 171.284 43.592 167.785 43.592C164.372 43.592 161.342 44.4027 158.697 46.024C156.137 47.56 154.089 49.736 152.553 52.552C151.102 55.368 150.377 58.6107 150.377 62.28C150.377 65.9493 151.102 69.192 152.553 72.008C154.089 74.824 156.137 77.0427 158.697 78.664C161.342 80.2 164.372 80.968 167.785 80.968ZM184.297 93V76.488L186.729 61.512L184.297 46.664V31.56H198.377V93H184.297Z" fill="#1B202B"/>
<path d="M230.259 94.28C226.846 94.28 223.56 93.8533 220.403 93C217.246 92.0613 214.344 90.7813 211.699 89.16C209.054 87.4533 206.75 85.4053 204.787 83.016L213.747 74.056C215.88 76.5307 218.312 78.408 221.043 79.688C223.859 80.8827 227.016 81.48 230.515 81.48C233.672 81.48 236.062 81.0107 237.683 80.072C239.304 79.1333 240.115 77.768 240.115 75.976C240.115 74.0987 239.347 72.648 237.811 71.624C236.275 70.6 234.27 69.7467 231.795 69.064C229.406 68.296 226.846 67.528 224.115 66.76C221.47 65.992 218.91 64.968 216.435 63.688C214.046 62.3227 212.083 60.488 210.547 58.184C209.011 55.88 208.243 52.8933 208.243 49.224C208.243 45.2987 209.139 41.928 210.931 39.112C212.808 36.296 215.411 34.12 218.739 32.584C222.152 31.048 226.206 30.28 230.899 30.28C235.848 30.28 240.2 31.176 243.955 32.968C247.795 34.6747 250.995 37.2773 253.555 40.776L244.595 49.736C242.803 47.5173 240.755 45.8533 238.451 44.744C236.147 43.6347 233.502 43.08 230.515 43.08C227.699 43.08 225.523 43.5067 223.987 44.36C222.451 45.2133 221.683 46.4507 221.683 48.072C221.683 49.7787 222.451 51.1013 223.987 52.04C225.523 52.9787 227.486 53.7893 229.875 54.472C232.35 55.1547 234.91 55.9227 237.555 56.776C240.286 57.544 242.846 58.6533 245.235 60.104C247.71 61.4693 249.715 63.3467 251.251 65.736C252.787 68.04 253.555 71.0693 253.555 74.824C253.555 80.7973 251.464 85.5333 247.283 89.032C243.102 92.5307 237.427 94.28 230.259 94.28Z" fill="#1B202B"/>
<path d="M287.051 94.28C281.504 94.28 276.47 92.872 271.947 90.056C267.51 87.24 263.968 83.4427 261.323 78.664C258.763 73.8 257.483 68.3813 257.483 62.408C257.483 56.3493 258.763 50.9307 261.323 46.152C263.968 41.288 267.51 37.448 271.947 34.632C276.47 31.7307 281.504 30.28 287.051 30.28C291.744 30.28 295.883 31.304 299.467 33.352C303.136 35.3147 306.038 38.0453 308.171 41.544C310.304 45.0427 311.371 49.0107 311.371 53.448V71.112C311.371 75.5493 310.304 79.5173 308.171 83.016C306.123 86.5147 303.264 89.288 299.595 91.336C295.926 93.2987 291.744 94.28 287.051 94.28ZM289.355 80.968C294.56 80.968 298.742 79.2187 301.899 75.72C305.142 72.2213 306.763 67.7413 306.763 62.28C306.763 58.6107 306.038 55.368 304.587 52.552C303.136 49.736 301.088 47.56 298.443 46.024C295.883 44.4027 292.854 43.592 289.355 43.592C285.942 43.592 282.912 44.4027 280.267 46.024C277.707 47.56 275.659 49.736 274.123 52.552C272.672 55.368 271.947 58.6107 271.947 62.28C271.947 65.9493 272.672 69.192 274.123 72.008C275.659 74.824 277.707 77.0427 280.267 78.664C282.912 80.2 285.942 80.968 289.355 80.968ZM305.867 93V76.488L308.299 61.512L305.867 46.664V31.56H319.947V93H305.867Z" fill="#1B202B"/>
<path d="M364.629 94.28C359.936 94.28 355.754 93.2987 352.085 91.336C348.416 89.288 345.514 86.5147 343.381 83.016C341.333 79.5173 340.309 75.5493 340.309 71.112V53.448C340.309 49.0107 341.376 45.0427 343.509 41.544C345.642 38.0453 348.544 35.3147 352.213 33.352C355.882 31.304 360.021 30.28 364.629 30.28C370.176 30.28 375.168 31.7307 379.605 34.632C384.128 37.448 387.669 41.288 390.229 46.152C392.874 50.9307 394.197 56.3493 394.197 62.408C394.197 68.3813 392.874 73.8 390.229 78.664C387.669 83.4427 384.128 87.24 379.605 90.056C375.168 92.872 370.176 94.28 364.629 94.28ZM362.325 80.968C365.738 80.968 368.725 80.2 371.285 78.664C373.93 77.0427 375.978 74.824 377.429 72.008C378.965 69.192 379.733 65.9493 379.733 62.28C379.733 58.6107 378.965 55.368 377.429 52.552C375.978 49.736 373.93 47.56 371.285 46.024C368.725 44.4027 365.738 43.592 362.325 43.592C358.912 43.592 355.882 44.4027 353.237 46.024C350.592 47.56 348.544 49.736 347.093 52.552C345.642 55.368 344.917 58.6107 344.917 62.28C344.917 65.9493 345.642 69.192 347.093 72.008C348.544 74.824 350.592 77.0427 353.237 78.664C355.882 80.2 358.912 80.968 362.325 80.968ZM331.733 93V0.839996H345.813V46.664L343.381 61.512L345.813 76.488V93H331.733Z" fill="#1B202B"/>
<path d="M430.687 94.28C424.543 94.28 418.996 92.9147 414.047 90.184C409.183 87.368 405.3 83.528 402.399 78.664C399.583 73.8 398.175 68.3387 398.175 62.28C398.175 56.2213 399.583 50.8027 402.399 46.024C405.215 41.16 409.012 37.32 413.791 34.504C418.655 31.688 424.031 30.28 429.919 30.28C435.636 30.28 440.671 31.6027 445.023 34.248C449.46 36.8933 452.916 40.52 455.391 45.128C457.951 49.736 459.231 54.984 459.231 60.872C459.231 61.896 459.146 62.9627 458.975 64.072C458.89 65.096 458.719 66.248 458.463 67.528H408.031V56.008H451.167L445.919 60.616C445.748 56.8613 445.023 53.704 443.743 51.144C442.463 48.584 440.628 46.6213 438.239 45.256C435.935 43.8907 433.076 43.208 429.663 43.208C426.079 43.208 422.964 43.976 420.319 45.512C417.674 47.048 415.626 49.224 414.175 52.04C412.724 54.7707 411.999 58.056 411.999 61.896C411.999 65.736 412.767 69.1067 414.303 72.008C415.839 74.9093 418.015 77.1707 420.831 78.792C423.647 80.328 426.89 81.096 430.559 81.096C433.716 81.096 436.618 80.5413 439.263 79.432C441.994 78.3227 444.298 76.7013 446.175 74.568L455.135 83.656C452.148 87.1547 448.522 89.8 444.255 91.592C439.988 93.384 435.466 94.28 430.687 94.28Z" fill="#1B202B"/>
<circle cx="466" cy="19" r="12" fill="#3982C2"/>
</svg>
